<?xml version="1.0" encoding="iso-8859-1"?>
<!-- Generator: Adobe Illustrator 19.0.0, SVG Export Plug-In . SVG Version: 6.00 Build 0)  -->
<svg version="1.1" id="Capa_1" xmlns="http://www.w3.org/2000/svg" xmlns:xlink="http://www.w3.org/1999/xlink" x="0px" y="0px"
	 viewBox="0 0 490 490" style="enable-background:new 0 0 490 490;" xml:space="preserve">
<g>
	<g>
		<g>
			<rect x="205.3" y="38.1" width="79.7" height="142.7"/>
			<path d="M304.5,135.3V201h-119v-65.7H0v316.6h490V135.3H304.5z M125.6,208.1c24.1,0,43.9,19.4,43.9,43.9
				c0,24.1-19.4,43.9-43.9,43.9c-24.1-0.4-43.9-19.8-43.9-44.3C81.7,227.5,101.5,208.1,125.6,208.1z M34.6,410.7
				c0-50.2,40.8-91,91-91s91,40.8,91,91H34.6z M449.9,410.3h-187c-5.4,0-10.1-4.3-10.1-10.1c0-5.4,4.3-10.1,10.1-10.1H450
				c5.4,0,10.1,4.3,10.1,10.1C459.7,406,455.4,410.3,449.9,410.3z M449.9,329.4h-187c-5.4,0-10.1-4.3-10.1-10.1
				c0-5.4,4.3-10.1,10.1-10.1H450c5.4,0,10.1,4.3,10.1,10.1C459.7,324.7,455.4,329.4,449.9,329.4z M449.9,248.1h-187
				c-5.4,0-10.1-4.3-10.1-10.1c0-5.4,4.3-10.1,10.1-10.1H450c5.4,0,10.1,4.3,10.1,10.1C459.7,243.4,455.4,248.1,449.9,248.1z"/>
		</g>
	</g>
</g>
<g>
</g>
<g>
</g>
<g>
</g>
<g>
</g>
<g>
</g>
<g>
</g>
<g>
</g>
<g>
</g>
<g>
</g>
<g>
</g>
<g>
</g>
<g>
</g>
<g>
</g>
<g>
</g>
<g>
</g>
</svg>
